<svg width="1440" height="865" viewBox="0 0 1440 865" fill="none" xmlns="http://www.w3.org/2000/svg">
<rect x="-160.518" y="-166.478" width="165.174" height="655.072" transform="rotate(-35 -160.518 -166.478)" stroke="#52A7AC" stroke-opacity="0.6" stroke-width="5"/>
<rect x="1079.45" y="511.158" width="165.174" height="655.072" transform="rotate(-57.7614 1079.45 511.158)" stroke="#52A7AC" stroke-opacity="0.6" stroke-width="5"/>
<rect x="1208.6" y="-348.629" width="165.174" height="655.072" transform="rotate(27.4753 1208.6 -348.629)" stroke="#52A7AC" stroke-opacity="0.6" stroke-width="5"/>
<path d="M1047.67 90.7285L979.658 185.939L931.437 77.2899L1047.67 90.7285Z" fill="#87D9D4"/>
<rect x="1030.48" y="-137.778" width="165.174" height="655.072" transform="rotate(-35 1030.48 -137.778)" stroke="#52A7AC" stroke-opacity="0.6" stroke-width="5"/>
<rect x="-409.283" y="299.472" width="165.174" height="805.431" transform="rotate(-73.2099 -409.283 299.472)" stroke="#52A7AC" stroke-opacity="0.6" stroke-width="5"/>
<path d="M1211.19 559.172L1196.76 656.76L1115.55 583.331L1211.19 559.172Z" fill="#87D9D4"/>
<path d="M556.676 642.601L502.498 746.166L439.932 648.233L556.676 642.601Z" fill="#87D9D4"/>
<rect x="-460.361" y="839.846" width="165.174" height="655.072" transform="rotate(-104.584 -460.361 839.846)" stroke="#52A7AC" stroke-opacity="0.6" stroke-width="5"/>
<path d="M274.232 131.315L300.659 164.543L262.153 172.016L274.232 131.315Z" fill="#87D9D4"/>
<path d="M259.196 480.721L273.105 566.199L192.124 535.506L259.196 480.721Z" fill="#87D9D4"/>
</svg>