<?xml version="1.0" standalone="no"?>
<!DOCTYPE svg PUBLIC "-//W3C//DTD SVG 20010904//EN"
 "http://www.w3.org/TR/2001/REC-SVG-20010904/DTD/svg10.dtd">
<svg version="1.0" xmlns="http://www.w3.org/2000/svg"
 width="379.000000pt" height="380.000000pt" viewBox="0 0 379.000000 380.000000"
 preserveAspectRatio="xMidYMid meet">
<metadata>
Created by potrace 1.16, written by Peter Selinger 2001-2019
</metadata>
<g transform="translate(0.000000,380.000000) scale(0.100000,-0.100000)"
fill="#000000" stroke="none">
<path d="M1507 3650 l-278 -37 -292 22 -292 21 -234 -78 c-129 -43 -239 -82
-244 -87 -5 -5 6 -37 26 -77 19 -38 45 -93 58 -123 l23 -54 -64 -121 -64 -121
40 -353 40 -353 -94 -417 -94 -417 58 -607 58 -607 46 -10 c25 -5 184 -35 355
-66 l310 -57 549 94 549 94 371 -73 371 -72 438 18 c241 11 440 21 442 22 1 2
26 78 54 168 l51 164 -75 247 -76 247 70 184 c39 101 71 188 71 193 0 4 -46
74 -102 154 -69 96 -102 152 -100 166 2 12 33 156 68 321 l64 300 5 230 c6
224 8 241 77 658 38 236 67 431 64 434 -3 4 -113 -12 -243 -33 l-238 -40 -220
33 c-190 28 -280 36 -660 53 -242 10 -478 19 -525 18 -47 0 -210 -17 -363 -38z
m309 -41 c-12 -106 12 -101 -256 -53 -129 23 -237 43 -240 44 -5 2 449 67 484
69 17 1 18 -4 12 -60z m498 46 c210 -9 389 -16 400 -18 12 -1 -55 -52 -180
-138 -193 -132 -200 -136 -224 -122 -14 8 -117 77 -229 154 -166 112 -199 139
-176 139 15 0 200 -7 409 -15z m-262 -129 c103 -70 189 -130 192 -135 3 -5
-36 3 -87 19 -50 15 -144 42 -207 60 -63 18 -118 36 -122 39 -11 10 14 152 26
148 6 -3 95 -62 198 -131z m-1094 87 c127 -9 232 -19 232 -22 -1 -8 -341 -244
-345 -239 -1 2 -41 65 -88 141 -85 135 -86 137 -59 137 15 0 132 -7 260 -17z
m2067 -13 c114 -16 209 -30 212 -30 3 0 3 -4 1 -8 -4 -12 -187 -172 -196 -172
-4 0 -61 54 -127 120 -66 66 -115 120 -109 120 7 0 105 -13 219 -30z m451 -71
c-109 -55 -200 -99 -202 -97 -2 2 0 33 4 68 l7 65 180 31 c99 18 187 32 195
32 8 1 -74 -44 -184 -99z m260 84 c-2 -10 -30 -173 -61 -363 -31 -190 -59
-353 -63 -363 -6 -14 -45 43 -167 240 -88 141 -161 262 -163 268 -2 9 429 233
451 234 5 1 6 -7 3 -16z m-3152 -25 c-17 -18 -90 -100 -163 -181 l-132 -148
-50 106 c-28 59 -48 110 -44 113 7 7 392 140 409 141 6 1 -4 -14 -20 -31z
m159 -110 c61 -98 82 -139 74 -146 -24 -19 -308 -164 -313 -160 -2 3 27 97 65
209 75 222 82 241 86 237 1 -2 41 -65 88 -140z m2152 21 c90 -90 114 -119 95
-115 -14 3 -92 10 -175 16 -82 6 -156 13 -163 15 -8 3 9 39 49 105 34 55 65
100 68 100 3 0 60 -54 126 -121z m-227 4 l-54 -87 -110 -22 c-60 -12 -110 -21
-111 -20 -2 2 70 53 159 114 90 61 164 109 167 107 2 -2 -21 -44 -51 -92z
m-2119 -120 c-39 -115 -75 -212 -79 -216 -4 -5 -34 5 -66 21 -112 58 -118 36
56 231 84 94 154 171 156 171 2 0 -28 -93 -67 -207z m835 28 c69 -80 124 -146
123 -147 -2 -2 -95 -14 -207 -28 -113 -14 -220 -28 -239 -32 l-33 -5 72 138
c123 235 131 247 145 231 7 -7 70 -78 139 -157z m158 127 c131 -23 238 -44
237 -47 -1 -6 -169 -158 -219 -198 l-27 -22 -124 141 c-143 163 -147 168 -122
168 9 0 124 -19 255 -42z m-431 -139 c-44 -85 -86 -162 -93 -172 -12 -17 -18
-14 -78 38 -36 31 -66 60 -68 65 -3 8 309 232 316 226 1 -2 -33 -73 -77 -157z
m824 -120 c62 -101 112 -186 110 -187 -6 -7 -485 163 -482 170 1 4 55 55 121
113 74 67 122 103 128 97 5 -5 60 -92 123 -193z m155 130 c118 -34 217 -63
218 -65 5 -3 -220 -254 -228 -254 -5 0 -230 360 -239 382 -2 6 5 8 15 5 11 -3
116 -34 234 -68z m486 -144 c-16 -69 -33 -125 -36 -125 -9 0 -180 190 -180
199 0 7 185 48 226 50 21 1 21 0 -10 -124z m268 114 c78 -7 144 -15 148 -18 8
-7 -223 -171 -239 -171 -4 0 -32 45 -61 100 l-52 100 32 0 c18 0 95 -5 172
-11z m372 -139 c-17 -82 -33 -146 -37 -142 -15 17 -118 256 -113 261 6 7 116
28 154 30 l26 1 -30 -150z m-537 31 l50 -98 -75 -23 c-42 -12 -78 -19 -81 -16
-6 6 45 236 53 236 2 0 26 -44 53 -99z m751 -157 c81 -132 146 -240 145 -242
-3 -3 -364 175 -373 183 -2 2 10 71 27 153 17 83 31 154 31 158 0 18 28 -24
170 -252z m-423 114 c-11 -62 -22 -115 -23 -116 -4 -6 -188 48 -197 58 -7 6
217 170 234 170 3 0 -4 -51 -14 -112z m106 -35 c36 -79 51 -123 42 -123 -7 0
-44 7 -82 16 l-70 15 18 97 c10 53 18 106 19 117 0 30 13 9 73 -122z m-778
-132 c-32 -5 -225 10 -225 18 0 5 48 61 108 127 l107 118 15 -129 c15 -128 15
-130 -5 -134z m-1509 232 c-3 -10 -19 -76 -37 -148 -17 -71 -35 -134 -39 -138
-4 -5 -62 22 -128 59 -67 38 -119 71 -116 74 9 9 309 169 317 170 5 0 6 -8 3
-17z m115 -55 c46 -41 51 -50 39 -61 -72 -66 -200 -166 -200 -157 0 10 31 139
61 253 11 43 9 44 100 -35z m1526 -56 l63 -69 -72 -27 c-40 -14 -75 -23 -78
-19 -7 8 -30 184 -30 225 1 22 2 22 28 -9 15 -17 55 -63 89 -101z m-1077 -119
c-67 -98 -152 -222 -188 -275 -37 -54 -69 -98 -73 -98 -11 0 -107 489 -96 490
22 5 439 58 455 59 20 1 7 -22 -98 -176z m583 29 c42 -15 76 -29 75 -33 -5
-11 -447 -369 -456 -369 -7 0 -43 442 -42 522 l0 26 173 -60 c94 -33 207 -72
250 -86z m-1602 91 c38 -21 69 -40 69 -44 0 -5 -242 -119 -253 -119 -2 0 19
45 47 100 28 55 55 100 60 100 5 0 40 -17 77 -37z m1178 -268 c10 -132 17
-241 17 -241 -1 -1 -95 -5 -210 -9 -193 -7 -209 -6 -203 9 4 10 89 137 189
284 172 250 183 264 186 232 2 -19 11 -143 21 -275z m-501 43 c23 -112 45
-219 49 -238 l6 -35 -24 20 c-96 81 -299 269 -297 275 4 11 208 180 217 180 5
0 27 -91 49 -202z m-578 16 c0 -74 -3 -134 -6 -134 -12 0 -274 145 -274 151 0
9 264 128 272 122 5 -2 8 -65 8 -139z m142 70 c76 -46 106 -70 99 -77 -19 -19
-216 -125 -223 -121 -13 8 -10 264 3 264 6 0 61 -30 121 -66z m1705 -4 c25 0
33 -4 33 -17 1 -27 -53 -317 -59 -325 -3 -4 -48 74 -100 174 l-94 181 93 -6
c51 -4 108 -7 127 -7z m-318 -204 l-53 -176 -80 1 c-45 1 -120 4 -167 8 l-86
6 216 176 c119 97 217 172 219 168 2 -4 -20 -87 -49 -183z m180 16 c50 -95 91
-177 91 -182 0 -6 -61 -10 -150 -10 -82 0 -150 3 -150 6 0 5 96 328 105 353 3
8 7 12 9 10 2 -2 44 -82 95 -177z m329 152 c61 -13 82 -22 82 -33 0 -39 -44
-271 -51 -264 -7 9 -149 311 -149 319 0 3 8 3 18 0 9 -3 54 -13 100 -22z m890
-72 c89 -45 162 -85 162 -87 0 -3 -53 -5 -119 -5 l-119 0 -39 68 c-54 91 -66
115 -56 111 4 -2 81 -41 171 -87z m-870 -257 c-9 -9 -218 -16 -218 -8 0 12 48
279 56 313 5 21 20 -3 85 -139 44 -90 78 -165 77 -166z m-2212 219 c76 -42
140 -77 142 -79 2 -2 -45 -109 -104 -239 -58 -130 -108 -235 -111 -233 -3 4
-73 593 -73 619 0 4 2 8 4 8 2 0 66 -34 142 -76z m492 -193 c29 -134 51 -246
49 -247 -2 -2 -84 77 -182 176 -130 131 -176 183 -168 191 21 21 238 138 244
131 3 -4 29 -117 57 -251z m1890 75 c-82 -60 -123 -85 -126 -76 -4 11 9 96 29
200 l11 55 45 -89 c24 -48 43 -89 41 -90z m-1726 -4 c71 -64 127 -119 126
-123 -5 -12 -208 -222 -211 -218 -4 5 -107 490 -107 502 0 11 30 -14 192 -161z
m2576 20 c-108 -93 -298 -242 -298 -234 0 11 70 244 77 255 2 4 60 7 129 7
l125 0 -33 -28z m49 -208 c-3 -119 -8 -218 -10 -221 -6 -5 -337 148 -337 156
1 8 333 279 344 280 5 1 7 -88 3 -215z m-2927 21 c101 -101 181 -187 177 -191
-10 -10 -582 -112 -585 -104 -4 9 209 480 217 480 3 0 89 -83 191 -185z m2620
168 c-1 -14 -66 -222 -71 -227 -3 -3 -27 16 -53 43 l-49 49 39 34 c21 18 57
50 79 70 39 37 55 46 55 31z m-875 -209 c58 -36 105 -69 105 -72 0 -4 -26 -22
-57 -40 -32 -17 -82 -46 -110 -63 l-53 -31 0 136 c0 75 2 136 5 136 3 0 53
-30 110 -66z m-1301 -174 l6 -225 -110 115 c-60 63 -110 119 -110 123 0 8 202
219 205 215 1 -2 5 -104 9 -228z m1862 18 l10 -70 -79 7 c-142 13 -141 12 -41
83 48 34 90 59 93 56 3 -3 11 -37 17 -76z m329 -29 c43 -60 75 -112 74 -114
-5 -4 -338 60 -344 67 -7 6 172 158 185 158 5 0 43 -50 85 -111z m78 50 c61
-28 130 -60 152 -71 l39 -21 -74 -38 c-41 -21 -78 -38 -81 -39 -3 0 -20 21
-38 48 -19 26 -54 75 -78 110 -25 34 -42 62 -39 62 4 0 57 -23 119 -51z m-847
24 c-2 -10 -7 -49 -11 -88 -3 -38 -8 -82 -11 -97 l-5 -27 -95 47 c-52 25 -93
50 -92 54 3 9 198 126 211 127 5 1 6 -7 3 -16z m176 -98 c0 -10 -171 -110
-176 -104 -2 3 19 207 23 217 2 7 154 -105 153 -113z m-1869 3 c-10 -18 -88
-156 -173 -306 -149 -264 -155 -273 -170 -251 -15 22 -249 478 -246 480 6 2
584 107 594 108 11 1 9 -7 -5 -31z m266 -218 c0 -7 -553 -350 -557 -345 -3 2
274 497 316 565 l15 24 113 -119 c62 -66 113 -122 113 -125z m656 191 c-29
-29 -210 -179 -213 -176 -5 5 17 158 24 164 3 3 36 9 72 12 111 10 127 10 117
0z m407 0 l86 -6 -195 -183 c-108 -100 -198 -181 -200 -179 -1 2 -9 66 -18
143 -8 76 -17 160 -20 187 l-6 47 133 -1 c73 -1 172 -4 220 -8z m609 -72 c22
-45 38 -83 36 -86 -7 -6 -257 49 -257 57 0 4 159 102 177 109 2 1 21 -35 44
-80z m132 65 c31 -3 57 -9 57 -12 0 -8 -111 -132 -119 -132 -6 0 -81 144 -81
156 0 4 19 4 43 1 23 -4 68 -9 100 -13z m-1092 -180 c11 -98 17 -179 14 -182
-7 -8 -274 152 -271 163 3 12 230 205 235 200 2 -2 12 -84 22 -181z m1709 -91
c-29 -137 -56 -254 -59 -261 -4 -7 -15 78 -25 190 -9 112 -19 215 -22 230 -5
25 0 30 73 67 43 21 79 35 81 30 2 -5 -20 -120 -48 -256z m-1221 176 c12 -45
19 -85 14 -89 -4 -4 -26 -14 -48 -23 -22 -8 -111 -45 -198 -81 -87 -36 -157
-62 -155 -58 5 13 348 332 357 332 4 0 18 -37 30 -81z m875 51 c88 -17 169
-34 180 -38 15 -6 -11 -30 -139 -126 -86 -65 -158 -116 -160 -114 -1 2 -13 64
-25 138 -12 74 -24 143 -26 153 -3 9 -2 17 2 17 4 0 79 -14 168 -30z m-166
-127 c12 -75 21 -138 19 -140 -2 -2 -43 29 -90 68 l-87 72 61 68 c34 38 64 69
68 69 4 0 17 -61 29 -137z m-2730 -536 c-115 -76 -212 -136 -215 -133 -6 5
155 742 165 760 2 4 62 -104 133 -240 l128 -249 -211 -138z m3141 349 c11
-132 20 -241 17 -243 -2 -2 -85 53 -185 123 -176 123 -182 128 -164 145 40 40
298 227 304 221 3 -4 16 -115 28 -246z m-704 52 c108 -101 191 -184 185 -186
-15 -5 -633 80 -643 88 -9 8 239 280 254 280 6 0 97 -82 204 -182z m-15 154
l125 -28 42 -116 c23 -63 45 -128 49 -144 l7 -29 -49 42 c-85 73 -319 302
-309 302 6 0 66 -12 135 -27z m-1590 -232 l0 -170 -182 0 c-101 0 -228 -3
-283 -6 -76 -5 -97 -4 -89 5 13 15 536 340 547 341 4 0 7 -76 7 -170z m1153
75 l-47 -95 -116 7 c-231 12 -231 6 -4 100 110 45 202 82 206 83 5 0 -13 -43
-39 -95z m687 28 c44 -36 80 -68 80 -70 0 -10 -73 -134 -76 -130 -8 7 -93 267
-88 267 3 0 41 -30 84 -67z m-1272 -25 l116 -68 -105 0 c-152 0 -149 -2 -149
82 0 50 3 67 12 62 6 -4 63 -38 126 -76z m1644 -246 c37 -26 66 -48 64 -49 -3
-3 -408 88 -414 93 -3 2 30 65 65 122 l14 23 102 -71 c56 -40 132 -92 169
-118z m-705 74 c167 -23 306 -45 309 -49 6 -6 -110 -281 -127 -301 -5 -6 -461
329 -523 385 -16 14 23 10 341 -35z m-129 -152 c134 -102 241 -188 239 -190
-2 -3 -115 26 -251 63 l-246 68 0 122 c0 68 3 123 8 123 4 0 116 -84 250 -186z
m838 -281 c-3 -3 -499 59 -505 64 -2 1 27 73 65 158 l68 156 188 -188 c103
-103 186 -188 184 -190z m-96 321 c113 -26 206 -48 207 -48 4 -3 -69 -250 -76
-258 -4 -4 -90 76 -191 178 -102 102 -176 184 -165 181 11 -3 112 -27 225 -53z
m-2112 -148 c2 -137 0 -167 -11 -164 -22 5 -556 312 -551 317 4 4 528 19 549
16 6 -1 11 -67 13 -169z m-319 -17 c155 -89 281 -162 279 -164 -6 -5 -699 -27
-704 -22 -7 7 127 347 136 347 4 0 134 -72 289 -161z m-387 -16 c-36 -93 -66
-169 -67 -171 -6 -8 -265 64 -263 73 3 9 376 262 389 264 4 1 -23 -74 -59
-166z m3139 -16 l86 -122 -125 -3 c-69 -1 -126 -1 -128 0 -4 5 69 248 75 248
3 0 45 -56 92 -123z m-1751 79 c0 -9 -251 -178 -256 -173 -3 3 -1 40 5 82 6
42 11 81 11 86 0 5 53 9 120 9 66 0 120 -2 120 -4z m383 -9 c-14 -24 -336
-367 -341 -363 -2 2 0 88 4 190 l7 186 169 0 c138 0 168 -2 161 -13z m318 -67
c138 -38 254 -72 257 -74 2 -3 -96 -55 -218 -116 -122 -61 -223 -110 -225
-108 -8 9 -81 368 -74 368 4 0 121 -31 260 -70z m-675 -122 c-4 -101 -9 -184
-11 -186 -6 -6 -266 171 -263 179 4 10 260 187 272 188 5 1 6 -75 2 -181z
m429 2 c21 -100 36 -183 33 -185 -2 -2 -100 -7 -218 -11 l-214 -7 44 50 c92
104 305 332 311 333 3 0 23 -81 44 -180z m845 0 c129 -17 236 -32 237 -34 3
-2 -218 -246 -302 -335 -15 -15 -35 22 -156 277 -55 116 -57 122 -35 122 12 0
128 -14 256 -30z m-355 -67 c-30 -105 -106 -326 -115 -336 -4 -5 -74 39 -155
97 l-147 105 219 109 c120 61 219 109 220 108 1 -1 -9 -38 -22 -83z m-2546 42
c74 -19 136 -36 137 -38 2 -2 -3 -183 -11 -403 -8 -219 -15 -430 -15 -468 0
-38 -3 -66 -7 -63 -4 4 -56 206 -115 450 -140 567 -137 557 -130 557 4 0 67
-16 141 -35z m2783 -367 c-19 -7 -323 -30 -329 -25 -3 3 111 337 137 402 12
30 14 27 111 -170 83 -171 95 -201 81 -207z m658 348 c0 -8 -24 -77 -53 -153
-30 -76 -57 -147 -61 -158 -6 -15 -24 19 -75 145 -38 91 -66 168 -64 173 2 4
60 7 129 7 101 0 124 -3 124 -14z m-2752 -170 l-203 -175 -152 157 c-84 86
-152 160 -152 165 -1 4 36 8 82 8 45 1 150 5 232 9 83 3 206 7 273 8 l124 2
-204 -174z m777 97 c63 -42 114 -77 112 -79 -1 -1 -52 2 -114 8 -100 10 -112
13 -117 32 -7 26 -8 116 -1 116 3 0 57 -34 120 -77z m1768 -100 c37 -92 65
-168 63 -170 -2 -2 -103 -2 -225 -1 l-223 3 154 167 c84 93 156 168 159 168 3
0 35 -75 72 -167z m-2326 -64 c-3 -122 -8 -223 -10 -225 -5 -5 -351 93 -375
106 -9 4 53 63 180 173 106 91 197 166 202 166 5 1 7 -90 3 -220z m-522 -283
c-47 -89 -122 -232 -168 -318 -45 -87 -84 -158 -87 -158 -4 0 25 904 30 945 0
6 70 -62 155 -149 l154 -159 -84 -161z m-395 -75 c61 -249 110 -455 108 -456
-12 -10 -129 -57 -133 -54 -5 6 -95 924 -94 960 0 13 2 20 5 14 2 -5 53 -214
114 -464z m2277 313 c74 -53 131 -100 126 -104 -4 -4 -63 -26 -130 -48 l-122
-40 -5 36 c-10 72 -18 252 -11 252 4 0 68 -43 142 -96z m533 -90 c0 -12 -93
-279 -100 -287 -4 -5 -60 51 -123 124 -64 73 -115 135 -113 137 3 2 76 10 163
17 87 7 161 13 166 14 4 0 7 -2 7 -5z m500 1 c0 -9 -232 -560 -239 -568 -7 -7
-221 537 -221 562 0 8 66 11 230 11 127 0 230 -2 230 -5z m-2612 -56 c97 -29
182 -54 188 -58 7 -4 -43 -65 -125 -153 -81 -87 -139 -142 -142 -135 -6 11
-109 382 -109 393 0 7 5 6 188 -47z m-149 -172 c28 -103 51 -192 51 -198 0 -9
-439 -233 -445 -227 -2 2 72 144 163 315 91 172 169 310 173 305 4 -4 30 -92
58 -195z m2386 -67 c54 -140 100 -262 103 -270 5 -12 -143 104 -278 219 l-35
29 50 146 c27 80 53 142 56 138 4 -4 51 -122 104 -262z m464 43 c37 -120 67
-220 65 -221 -4 -6 -369 -120 -372 -117 -2 2 49 130 114 284 64 155 119 280
121 277 3 -2 35 -103 72 -223z m-983 200 c-27 -76 -162 -403 -166 -403 -4 0
-91 298 -94 324 -1 7 230 93 258 95 4 1 5 -7 2 -16z m154 -124 c63 -72 116
-134 117 -137 3 -7 -409 -163 -414 -158 -6 5 169 426 176 426 4 0 58 -59 121
-131z m-1143 49 c-2 -7 -19 -48 -37 -90 l-32 -76 -42 18 c-179 77 -323 143
-330 151 -6 5 79 9 218 9 178 0 227 -3 223 -12z m345 -55 c-33 -38 -69 -76
-81 -87 -23 -21 -20 -23 -154 101 l-58 53 176 0 177 0 -60 -67z m345 53 c1 -1
-27 -46 -63 -100 l-66 -99 -25 44 c-34 59 -83 157 -83 165 0 5 231 -5 237 -10z
m-874 -136 c80 -35 96 -45 85 -55 -36 -34 -399 -317 -403 -314 -2 2 -1 117 2
255 l6 252 106 -48 c58 -25 150 -66 204 -90z m322 45 l80 -75 -133 0 -132 0
13 33 c56 132 59 137 76 127 9 -6 52 -44 96 -85z m367 -49 c16 -32 27 -60 25
-63 -5 -4 -248 27 -256 33 -2 2 31 42 74 89 l78 86 24 -43 c14 -24 38 -69 55
-102z m-1029 -299 l-8 -69 -127 98 c-71 53 -128 101 -128 105 0 4 60 72 133
150 l132 142 3 -179 c1 -99 -1 -210 -5 -247z m1282 256 c23 -82 40 -149 36
-151 -11 -4 -211 109 -211 120 0 17 124 201 128 190 2 -7 23 -78 47 -159z
m-525 -25 c0 -29 -27 -219 -32 -223 -1 -2 -56 53 -121 121 l-119 124 136 0
c134 0 136 0 136 -22z m287 -22 c3 -2 -62 -49 -143 -105 -81 -55 -149 -99
-150 -98 -3 3 25 216 30 233 3 8 42 5 132 -8 70 -10 129 -20 131 -22z m-457
-91 c67 -69 121 -127 119 -130 -6 -5 -628 -67 -640 -63 -9 3 378 317 392 318
3 0 61 -56 129 -125z m1395 -25 c85 -69 154 -128 155 -131 0 -6 -503 -218
-508 -214 -7 5 182 475 190 473 5 -2 79 -60 163 -128z m-371 -22 c-80 -79
-151 -144 -158 -146 -10 -2 -86 119 -86 138 0 7 362 148 383 150 4 0 -59 -64
-139 -142z m-341 31 l52 -28 -35 -15 c-19 -8 -115 -48 -212 -89 -98 -41 -178
-73 -178 -70 0 9 24 49 106 175 l84 129 66 -37 c36 -20 89 -50 117 -65z m482
29 c-95 -252 -144 -373 -152 -375 -11 -4 -136 134 -131 145 5 11 295 292 301
292 4 0 -5 -28 -18 -62z m-802 -102 c-48 -75 -93 -136 -98 -136 -6 0 -30 20
-53 43 l-43 44 138 95 c76 53 139 94 141 93 2 -1 -37 -64 -85 -139z m-1243 70
c0 -20 29 -315 35 -359 3 -24 1 -37 -6 -37 -16 0 -463 170 -473 180 -7 7 412
228 437 229 4 1 7 -5 7 -13z m163 -100 c64 -49 117 -91 117 -95 0 -3 -49 -50
-110 -104 -99 -88 -110 -95 -114 -75 -5 21 -36 343 -36 368 0 14 3 12 143 -94z
m2646 -75 c-24 -78 -46 -141 -50 -141 -13 0 -255 155 -258 165 -2 9 339 126
348 119 2 -2 -16 -66 -40 -143z m-1132 62 c21 -38 39 -71 41 -74 1 -3 -66 -9
-150 -13 -84 -3 -196 -9 -248 -12 -52 -4 -92 -3 -88 0 8 10 380 165 395 166 6
0 29 -30 50 -67z m-602 -64 l40 -42 -135 7 c-74 3 -215 9 -313 12 -97 4 -175
9 -173 11 6 6 427 50 491 52 47 1 54 -2 90 -40z m1367 -41 c-2 -29 -7 -56 -11
-59 -8 -7 -412 -71 -418 -66 -4 5 407 176 423 177 7 0 9 -18 6 -52z m187 -45
c47 -29 76 -53 65 -52 -10 0 -66 8 -124 17 l-105 17 -3 44 c-2 24 -1 50 2 58
7 16 0 19 165 -84z m-1921 43 c167 -8 306 -17 309 -20 4 -3 1 -6 -6 -6 -6 0
-210 -34 -453 -75 -242 -42 -445 -74 -451 -72 -6 2 37 44 94 95 122 108 58 98
507 78z m1091 -62 c34 -36 60 -68 58 -70 -2 -2 -137 22 -300 53 -163 32 -294
59 -292 61 5 5 248 19 371 20 l102 2 61 -66z m-2089 -19 c107 -41 188 -74 180
-75 -23 0 -480 87 -486 93 -4 4 89 54 106 56 3 0 93 -33 200 -74z"
stroke="#000"
fill="#06f1f6"
/>
</g>
</svg>
